<?xml version="1.0" encoding="iso-8859-1"?>
<!-- Generator: Adobe Illustrator 19.1.0, SVG Export Plug-In . SVG Version: 6.00 Build 0)  -->
<svg version="1.1" id="Capa_1" xmlns="http://www.w3.org/2000/svg" xmlns:xlink="http://www.w3.org/1999/xlink" x="0px" y="0px"
	 viewBox="0 0 76.724 76.724" style="enable-background:new 0 0 76.724 76.724;" xml:space="preserve">
<path style="fill:#1E201D;" d="M31.425,72.409c0.102,0.041,0.225,0.102,0.348,0.143c0.86,0.266,1.78,0.123,2.722-0.553
	c1.228-0.9,2.497-2.599,3.704-5.3c0.471-1.064,0.941-2.292,1.392-3.684l0,0l0,0c0.655-1.985,1.228-4.257,1.74-6.61
	c-0.982,2.251-2.046,4.38-3.131,6.242c-0.041,0.102-0.102,0.205-0.164,0.307c-2.497,4.298-4.993,7.061-7.367,8.595
	c-0.082,0.061-0.164,0.102-0.266,0.164C30.709,72.02,31.057,72.245,31.425,72.409L31.425,72.409z M36.583,57.122
	c-1.023,1.412-2.087,2.742-3.111,3.95c-1.596,1.842-3.131,3.356-4.605,4.564c-0.041,0.819-0.041,1.576,0.02,2.272
	c1.78-1.289,3.725-3.581,5.751-7.101c0.02-0.02,0.041-0.061,0.061-0.082C35.334,59.598,35.969,58.39,36.583,57.122L36.583,57.122z
	 M24.222,68.725c0.246,0.143,0.491,0.225,0.757,0.307c0-0.102-0.02-0.184-0.02-0.266c-0.02-0.164-0.041-0.348-0.061-0.512
	c-0.164,0.061-0.307,0.143-0.471,0.205c-0.123,0.061-0.246,0.123-0.389,0.164l0.102,0.061
	C24.161,68.684,24.181,68.705,24.222,68.725L24.222,68.725z M29.399,50.02c-1.412,1.924-2.681,3.847-3.704,5.628h-0.02
	c-2.292,3.97-3.274,7.04-3.295,9.312c0.143-0.061,0.287-0.123,0.43-0.184c0.716-0.307,1.453-0.737,2.251-1.289
	c0.266-1.883,0.757-3.991,1.514-6.324l0,0c0.696-2.128,1.617-4.461,2.66-6.794L29.399,50.02z M26.412,73.125
	c-1.473,0.143-2.886-0.184-4.175-0.9c-0.041-0.02-0.082-0.041-0.123-0.061c-1.146-0.675-2.087-1.576-2.742-2.742
	c-1.351-0.123-2.599-0.594-3.684-1.371c-0.184-0.123-0.368-0.266-0.553-0.43c-1.699-1.453-2.599-3.5-2.353-6.14
	c0.205-2.272,1.289-4.994,3.499-8.145c0.696-0.982,1.514-2.026,2.456-3.111c3.684-4.298,9.291-9.332,14.162-12.688
	c3.152-2.149,6.139-3.622,8.452-3.847L60.219,0.985c0.553-0.941,1.78-1.269,2.742-0.716c0.962,0.553,1.31,1.78,0.757,2.742
	l-18.541,32.13c1.514,1.924,1.985,5.792,1.719,10.355c-0.327,5.935-1.719,13.364-3.479,18.767l0,0
	c-0.491,1.514-1.023,2.865-1.555,4.073c-1.514,3.377-3.233,5.628-5.014,6.917c-2.087,1.514-4.236,1.801-6.303,1.126
	c-0.246-0.082-0.491-0.184-0.757-0.307C28.417,75.458,27.271,74.497,26.412,73.125L26.412,73.125z M18.349,64.98
	c0.041-2.886,1.146-6.61,3.766-11.174c0.041-0.102,0.123-0.225,0.184-0.327c0.716-1.228,1.535-2.497,2.415-3.786
	c-1.064,1.064-2.046,2.128-2.926,3.152c-0.839,0.982-1.576,1.924-2.21,2.804c-1.78,2.558-2.66,4.605-2.783,6.18
	c-0.123,1.228,0.246,2.128,0.941,2.722c0.082,0.082,0.184,0.143,0.287,0.225C18.123,64.837,18.246,64.919,18.349,64.98L18.349,64.98
	z M41.965,37.843c-0.614,0.327-1.719,1.637-3.07,3.459c-2.067,2.824-4.216,6.774-5.996,10.703c-0.982,2.21-1.842,4.4-2.497,6.406
	l0,0l0,0l-0.02,0.082l0.041-0.041c1.166-1.371,2.415-2.967,3.602-4.687c2.579-3.643,4.973-7.736,6.426-11.133
	C41.412,40.34,42.006,38.56,41.965,37.843L41.965,37.843z"/>
<g>
</g>
<g>
</g>
<g>
</g>
<g>
</g>
<g>
</g>
<g>
</g>
<g>
</g>
<g>
</g>
<g>
</g>
<g>
</g>
<g>
</g>
<g>
</g>
<g>
</g>
<g>
</g>
<g>
</g>
</svg>
