<?xml version="1.0" encoding="iso-8859-1"?>
<!-- Generator: Adobe Illustrator 19.1.0, SVG Export Plug-In . SVG Version: 6.00 Build 0)  -->
<svg version="1.1" id="Capa_1" xmlns="http://www.w3.org/2000/svg" xmlns:xlink="http://www.w3.org/1999/xlink" x="0px" y="0px"
	 viewBox="0 0 89.037 89.037" style="enable-background:new 0 0 89.037 89.037;" xml:space="preserve">
<path style="fill:#1E201D;" d="M15.622,59.018c0.082-1.167,0.327-2.313,0.696-3.459c0.43-1.248,1.023-2.497,1.821-3.725
	c0.143-0.225,0.327-0.409,0.532-0.553l-0.02-0.02l40.807-29.245c0.143-0.102,0.307-0.205,0.471-0.266
	c2.006-0.757,3.868-0.594,5.71-0.43c0.982,0.102,1.965,0.184,2.824,0.061c1.207-0.164,3.172-2.292,5.198-4.502
	c1.596-1.74,3.254-3.54,4.932-4.748c3.07-2.19,6.058-2.66,8.738,1.085l0.634,0.9c2.558,3.541,0.205,6.631-3.54,9.312
	c-1.74,1.248-3.806,2.415-5.689,3.479c-2.251,1.248-4.175,2.333-4.277,2.599c-0.348,0.839-0.491,1.637-0.614,2.415
	c-0.02,0.061-0.041,0.102-0.041,0.164c-0.266,1.453-0.553,2.865-1.924,4.973c-0.143,0.225-0.307,0.409-0.512,0.553l0,0
	l-40.97,29.368c-0.164,0.123-0.327,0.205-0.512,0.266c-1.33,0.573-2.558,0.778-3.868,0.757l0,0l0,0
	c-1.207,0-2.394-0.205-3.806-0.491c-2.312,0.061-5.198,2.886-7.879,5.485c-1.494,1.453-2.926,2.865-4.318,3.868
	c-3.008,2.149-5.771,2.681-8.165-0.655l-0.634-0.9c-2.681-3.725-0.594-6.733,3.049-9.332c1.719-1.248,3.847-2.394,5.853-3.479
	C12.716,61.085,15.11,59.796,15.622,59.018L15.622,59.018z M20.144,56.828c-0.307,0.921-0.491,1.821-0.512,2.742l0,0
	c-0.02,0.184-0.041,0.368-0.102,0.553c-0.757,2.272-3.991,4.011-7.511,5.914c-1.883,1.023-3.847,2.087-5.403,3.213
	c-1.801,1.289-2.947,2.579-2.128,3.704l0.634,0.9c0.573,0.798,1.473,0.491,2.558-0.266c1.187-0.86,2.497-2.149,3.847-3.479
	c3.295-3.193,6.835-6.651,10.826-6.631c0.164,0,0.327,0,0.491,0.041c1.289,0.266,2.333,0.471,3.213,0.471
	c0.737,0,1.412-0.102,2.169-0.409l40.479-29.02c0.757-1.289,0.962-2.231,1.126-3.172c0.02-0.061,0.02-0.123,0.041-0.184
	c0.164-0.941,0.327-1.903,0.86-3.213c0.655-1.596,3.131-2.988,6.037-4.605c1.76-1.003,3.725-2.087,5.321-3.233
	c1.924-1.392,3.295-2.742,2.599-3.704l-0.634-0.9c-0.88-1.207-1.965-0.962-3.111-0.143c-1.371,0.982-2.865,2.62-4.339,4.195
	c-2.497,2.742-4.952,5.382-7.572,5.771c-1.289,0.184-2.517,0.061-3.765-0.041c-1.289-0.123-2.579-0.246-3.684,0.123L21.311,54.332
	C20.82,55.15,20.41,55.989,20.144,56.828L20.144,56.828z"/>
<g>
</g>
<g>
</g>
<g>
</g>
<g>
</g>
<g>
</g>
<g>
</g>
<g>
</g>
<g>
</g>
<g>
</g>
<g>
</g>
<g>
</g>
<g>
</g>
<g>
</g>
<g>
</g>
<g>
</g>
</svg>
